<?xml version="1.0" encoding="utf-8"?>
<!-- Generator: Adobe Illustrator 25.0.0, SVG Export Plug-In . SVG Version: 6.00 Build 0)  -->
<svg version="1.1" id="Ebene_1" xmlns="http://www.w3.org/2000/svg" xmlns:xlink="http://www.w3.org/1999/xlink" x="0px" y="0px"
	 viewBox="0 0 715.1 168.4" style="enable-background:new 0 0 715.1 168.4;" xml:space="preserve">
<style type="text/css">
	.st0{fill:#3399FF;}
</style>
<g>
	<g>
		<path class="st0" d="M120.6,14c0-6.2,4.6-10.5,13.1-10.5c4.9,0,9.1,0.9,11.3,1.9l-1.3,3.7c-1.9-0.9-5.7-1.8-10.3-1.8
			c-5.7,0-8.4,3.2-8.4,6.6c0,9.9,20.7,8.6,20.7,22c0,6.8-5.2,11.7-14.2,11.7c-6.1,0-9.8-1-12-2.2l1.5-3.9c1.9,1,5.8,2.3,10.4,2.3
			c5.4,0,10-2.4,10-7.7C141.3,25.3,120.6,28.1,120.6,14z"/>
		<path class="st0" d="M163,37.4l10.2-33.2h1.8l10.3,33.2l8.6-33.2h4.2l-11.9,43.3H184l-8.9-29.6l-1.2-6.4h-0.2l-1.2,6.4l-8.9,29.6
			h-2.1L149.4,4.2h4.5L163,37.4z"/>
		<path class="st0" d="M205.4,4.2h4.4v42.6h-4.4V4.2z"/>
		<path class="st0" d="M219.7,14c0-6.2,4.6-10.5,13.1-10.5c4.9,0,9.1,0.9,11.3,1.9l-1.3,3.7c-1.9-0.9-5.7-1.8-10.3-1.8
			c-5.7,0-8.4,3.2-8.4,6.6c0,9.9,20.7,8.6,20.7,22c0,6.8-5.2,11.7-14.2,11.7c-6.1,0-9.8-1-12-2.2l1.5-3.9c1.9,1,5.8,2.3,10.4,2.3
			c5.4,0,10-2.4,10-7.7C240.5,25.3,219.7,28.1,219.7,14z"/>
		<path class="st0" d="M252,14c0-6.2,4.6-10.5,13.1-10.5c4.9,0,9.1,0.9,11.3,1.9l-1.3,3.7c-1.9-0.9-5.7-1.8-10.3-1.8
			c-5.7,0-8.4,3.2-8.4,6.6c0,9.9,20.7,8.6,20.7,22c0,6.8-5.2,11.7-14.2,11.7c-6.1,0-9.8-1-12-2.2l1.5-3.9c1.9,1,5.8,2.3,10.4,2.3
			c5.4,0,10-2.4,10-7.7C272.8,25.3,252,28.1,252,14z"/>
	</g>
	<g>
		<path class="st0" d="M0,63.7h26.2v8.7H9.8v8.2h14.8v8.7H9.8v8.3h16.7v8.7H0V63.7z"/>
		<path class="st0" d="M60.9,104.5c-2.6,1.8-7.2,2.6-11.4,2.6c-10.2,0-19.3-5.7-19.3-22.1c0-17,10.5-22.1,19.5-22.1
			c4.8,0,8.3,0.8,10.5,1.6l-1.8,8.3c-1.9-0.9-4.1-1.3-7.8-1.3c-6.7,0-10.2,4.7-10.2,13.4c0,7.5,2.9,13.4,10.7,13.4
			c3.6,0,5.8-0.9,7.8-1.9L60.9,104.5z"/>
		<path class="st0" d="M80.1,62.8c12.4,0,18.4,8.9,18.4,22.1c0,14.1-6.8,22.1-18.4,22.1c-12.5,0-18.4-8.9-18.4-22.1
			C61.7,70.8,68.3,62.8,80.1,62.8z M80.1,98.4c5.2,0,8.1-3.7,8.1-13.4c0-7.8-2.1-13.4-8.1-13.4c-5.2,0-8.1,4.2-8.1,13.4
			C72,93.2,74.4,98.4,80.1,98.4z"/>
		<path class="st0" d="M112.5,82.9l0,23.4h-9.2V63.5h7.6l16.7,23.4l0-23.2h9.2v42.8h-7.5L112.5,82.9z"/>
		<path class="st0" d="M160,62.8c12.4,0,18.4,8.9,18.4,22.1c0,14.1-6.8,22.1-18.4,22.1c-12.5,0-18.4-8.9-18.4-22.1
			C141.6,70.8,148.2,62.8,160,62.8z M160,98.4c5.2,0,8.1-3.7,8.1-13.4c0-7.8-2.1-13.4-8.1-13.4c-5.2,0-8.1,4.2-8.1,13.4
			C151.9,93.2,154.3,98.4,160,98.4z"/>
		<path class="st0" d="M216.3,81.2L206,99.4h-3.2l-10.5-17.6l0,24.5h-9.2V63.7h9.3l12.7,21.8L217,63.7h9.1v42.6h-9.8L216.3,81.2z"/>
		<path class="st0" d="M232.8,63.7h9.8v42.6h-9.8V63.7z"/>
		<path class="st0" d="M278.8,104.5c-2.6,1.8-7.2,2.6-11.4,2.6c-10.2,0-19.3-5.7-19.3-22.1c0-17,10.5-22.1,19.5-22.1
			c4.8,0,8.3,0.8,10.5,1.6l-1.8,8.3c-1.9-0.9-4.1-1.3-7.8-1.3c-6.7,0-10.2,4.7-10.2,13.4c0,7.5,2.9,13.4,10.7,13.4
			c3.6,0,5.8-0.9,7.8-1.9L278.8,104.5z"/>
	</g>
	<g>
		<path class="st0" d="M89.7,122.5h22.8v3.8H94.1v15.6h17.2v3.8H94.1v19.5h-4.4V122.5z"/>
		<path class="st0" d="M136.7,121.8c11.9,0,17.3,8.8,17.3,22c0,14.1-6.3,22-17.3,22c-11.8,0-17.2-8.8-17.2-22
			C119.5,129.7,125.8,121.8,136.7,121.8z M136.7,162.1c7.8,0,12.7-6,12.7-18.3c0-9.6-3.8-18.3-12.7-18.3c-7.8,0-12.6,6-12.6,18.3
			C124.1,153.4,127.9,162.1,136.7,162.1z"/>
		<path class="st0" d="M163.1,122.9c3-0.5,7.2-0.9,10.6-0.9c7.2,0,13.5,3.2,13.5,11.7c0,6.1-3.6,10.2-8.5,11.8c-0.1,0-0.1,0-0.2,0.1
			l12.5,19.6H186l-12.2-18.7l-6.3,0v18.8h-4.4V122.9z M167.5,126.2v16.4h5c5.8,0,10.1-2.9,10.1-8.9c0-4.5-3.4-7.9-8.9-7.9
			C171.6,125.8,168.7,125.9,167.5,126.2z"/>
		<path class="st0" d="M224,122.5h4.1v28.6c0,10.2-5.5,14.5-13.9,14.5c-9.9,0-15-4.4-15-13.5v-29.6h4.4v27c0,9.1,3.5,12.2,10.7,12.2
			c6.9,0,9.7-3.5,9.7-12.2V122.5z"/>
		<path class="st0" d="M271.8,131.6l-13.5,23.1H257l-13.7-22.5l0,32.9h-4.1v-42.6h2.9l15.8,25.4l15.2-25.4h3.2v42.6h-4.4
			L271.8,131.6z"/>
	</g>
	<g>
		<path class="st0" d="M331.8,48.3c0-34.5,24.1-48.3,56.7-48.3c18.7,0,37.2,3.5,48.6,10.2l-11.8,31.2c-6.5-4.6-21.3-9.3-36.5-9.3
			c-12,0-19.7,4.2-19.7,13c0,24.5,71.9,18.7,71.9,71.2c0,37.2-25.2,52-60.8,52c-23.1,0-43.5-5.8-51.8-10.2l12-31.2
			c6.7,3.5,22.4,9.3,37.7,9.3c18,0,25.7-5.6,25.7-15.5C403.7,95.5,331.8,102.9,331.8,48.3z"/>
		<path class="st0" d="M457.9,3.2h99.5v33.1h-62.2v31h56.4v33.1h-56.4v31.7h63.4v33.1H457.9V3.2z"/>
		<path class="st0" d="M577.2,3.2h99.5v33.1h-62.2v33.5h57.1v33.1h-57.1v62.2h-37.2V3.2z"/>
		<path class="st0" d="M693.8,128.4c13,0,21.3,7.4,21.3,19.7c0,11.8-8.3,19.7-21.3,19.7c-12.5,0-20.8-7.9-20.8-19.7
			C673,135.8,681.3,128.4,693.8,128.4z"/>
	</g>
</g>
</svg>
