<?xml version="1.0" encoding="utf-8"?>
<!-- Generator: Adobe Illustrator 25.0.0, SVG Export Plug-In . SVG Version: 6.00 Build 0)  -->
<svg version="1.1" id="Ebene_1" xmlns="http://www.w3.org/2000/svg" xmlns:xlink="http://www.w3.org/1999/xlink" x="0px" y="0px"
	 viewBox="0 0 386.7 168.4" style="enable-background:new 0 0 386.7 168.4;" xml:space="preserve">
<style type="text/css">
	.st0{fill:#3399FF;}
</style>
<g>
	<path class="st0" d="M3.5,48.3C3.5,13.9,27.5,0,60.1,0c18.7,0,37.2,3.5,48.6,10.2L96.9,41.4c-6.5-4.6-21.3-9.3-36.5-9.3
		c-12,0-19.7,4.2-19.7,13c0,24.5,71.9,18.7,71.9,71.2c0,37.2-25.2,52-60.8,52c-23.1,0-43.5-5.8-51.8-10.2L12,127
		c6.7,3.5,22.4,9.3,37.7,9.3c18,0,25.7-5.6,25.7-15.5C75.4,95.5,3.5,102.9,3.5,48.3z"/>
	<path class="st0" d="M129.5,3.2H229v33.1h-62.2v31h56.4v33.1h-56.4v31.7h63.4v33.1H129.5V3.2z"/>
	<path class="st0" d="M248.9,3.2h99.5v33.1h-62.2v33.5h57.1v33.1h-57.1v62.2h-37.2V3.2z"/>
	<path class="st0" d="M365.5,128.4c13,0,21.3,7.4,21.3,19.7c0,11.8-8.3,19.7-21.3,19.7c-12.5,0-20.8-7.9-20.8-19.7
		C344.6,135.8,353,128.4,365.5,128.4z"/>
</g>
</svg>
